<mxfile host="app.diagrams.net" modified="2024-08-04T20:22:45.303Z" agent="Mozilla/5.0 (Windows NT 10.0; Win64; x64) AppleWebKit/537.36 (KHTML, like Gecko) Chrome/127.0.0.0 Safari/537.36" etag="RFC4kefb8pH_uGqOqblI" version="24.7.1" type="github">
  <diagram name="Page-1" id="9f46799a-70d6-7492-0946-bef42562c5a5">
    <mxGraphModel dx="875" dy="464" grid="1" gridSize="10" guides="1" tooltips="1" connect="1" arrows="1" fold="1" page="1" pageScale="1" pageWidth="1100" pageHeight="850" background="none" math="0" shadow="0">
      <root>
        <mxCell id="0" />
        <mxCell id="1" parent="0" />
        <mxCell id="hp7iopNFb53G-ryiseYE-11" value="" style="edgeStyle=orthogonalEdgeStyle;rounded=0;orthogonalLoop=1;jettySize=auto;html=1;" edge="1" parent="1" source="hp7iopNFb53G-ryiseYE-1" target="hp7iopNFb53G-ryiseYE-6">
          <mxGeometry relative="1" as="geometry" />
        </mxCell>
        <mxCell id="hp7iopNFb53G-ryiseYE-1" value="Home Page" style="swimlane;whiteSpace=wrap;html=1;" vertex="1" parent="1">
          <mxGeometry x="20" y="300" width="250" height="260" as="geometry" />
        </mxCell>
        <mxCell id="hp7iopNFb53G-ryiseYE-2" value="&lt;h1 style=&quot;margin-top: 0px;&quot;&gt;engli&lt;/h1&gt;&lt;div&gt;Product details in short.&lt;/div&gt;" style="text;html=1;whiteSpace=wrap;overflow=hidden;rounded=0;" vertex="1" parent="hp7iopNFb53G-ryiseYE-1">
          <mxGeometry x="10" y="60" width="180" height="80" as="geometry" />
        </mxCell>
        <mxCell id="hp7iopNFb53G-ryiseYE-3" value="&lt;b&gt;Login / Signup&lt;/b&gt;" style="rounded=1;whiteSpace=wrap;html=1;" vertex="1" parent="hp7iopNFb53G-ryiseYE-1">
          <mxGeometry x="50" y="150" width="140" height="40" as="geometry" />
        </mxCell>
        <mxCell id="hp7iopNFb53G-ryiseYE-8" value="Add some examples of conversation" style="text;html=1;align=center;verticalAlign=middle;whiteSpace=wrap;rounded=0;" vertex="1" parent="hp7iopNFb53G-ryiseYE-1">
          <mxGeometry x="10" y="210" width="200" height="30" as="geometry" />
        </mxCell>
        <mxCell id="hp7iopNFb53G-ryiseYE-17" value="" style="edgeStyle=orthogonalEdgeStyle;rounded=0;orthogonalLoop=1;jettySize=auto;html=1;" edge="1" parent="1" source="hp7iopNFb53G-ryiseYE-5" target="hp7iopNFb53G-ryiseYE-10">
          <mxGeometry relative="1" as="geometry" />
        </mxCell>
        <mxCell id="hp7iopNFb53G-ryiseYE-5" value="Login Page" style="swimlane;whiteSpace=wrap;html=1;" vertex="1" parent="1">
          <mxGeometry x="300" y="300" width="243.23" height="260" as="geometry" />
        </mxCell>
        <mxCell id="hp7iopNFb53G-ryiseYE-6" value="&lt;h1 style=&quot;margin-top: 0px;&quot;&gt;Login Page&lt;/h1&gt;&lt;div&gt;Login/Signup with&lt;/div&gt;&lt;div&gt;* Google&lt;/div&gt;&lt;div&gt;* Email&lt;/div&gt;" style="text;html=1;whiteSpace=wrap;overflow=hidden;rounded=0;" vertex="1" parent="hp7iopNFb53G-ryiseYE-5">
          <mxGeometry x="20" y="60" width="180" height="120" as="geometry" />
        </mxCell>
        <mxCell id="hp7iopNFb53G-ryiseYE-9" value="Pricing/Subscription" style="swimlane;whiteSpace=wrap;html=1;" vertex="1" parent="1">
          <mxGeometry x="570" y="300" width="250" height="260" as="geometry" />
        </mxCell>
        <mxCell id="hp7iopNFb53G-ryiseYE-10" value="&lt;h1 style=&quot;margin-top: 0px;&quot;&gt;Subscription&lt;/h1&gt;&lt;div&gt;Should be only after Login/Signup&lt;/div&gt;" style="text;html=1;whiteSpace=wrap;overflow=hidden;rounded=0;" vertex="1" parent="hp7iopNFb53G-ryiseYE-9">
          <mxGeometry x="30" y="80" width="180" height="120" as="geometry" />
        </mxCell>
        <mxCell id="hp7iopNFb53G-ryiseYE-19" value="1. Free&lt;div&gt;2. Pay As You Go&lt;/div&gt;&lt;div&gt;3. Monthly&lt;/div&gt;" style="text;strokeColor=none;fillColor=none;align=left;verticalAlign=middle;spacingLeft=4;spacingRight=4;overflow=hidden;points=[[0,0.5],[1,0.5]];portConstraint=eastwest;rotatable=0;whiteSpace=wrap;html=1;" vertex="1" parent="hp7iopNFb53G-ryiseYE-9">
          <mxGeometry x="30" y="180" width="190" height="50" as="geometry" />
        </mxCell>
        <mxCell id="hp7iopNFb53G-ryiseYE-12" value="Free Product" style="swimlane;whiteSpace=wrap;html=1;" vertex="1" parent="1">
          <mxGeometry x="850" y="300" width="260" height="260" as="geometry" />
        </mxCell>
        <mxCell id="hp7iopNFb53G-ryiseYE-16" value="&lt;h1 style=&quot;margin-top: 0px;&quot;&gt;Free Product&lt;/h1&gt;&lt;div&gt;Using free tools:&lt;/div&gt;&lt;div&gt;gTTS for Text to Speech&lt;/div&gt;&lt;div&gt;&lt;br&gt;&lt;/div&gt;&lt;div&gt;&lt;br&gt;&lt;/div&gt;" style="text;html=1;whiteSpace=wrap;overflow=hidden;rounded=0;" vertex="1" parent="hp7iopNFb53G-ryiseYE-12">
          <mxGeometry x="20" y="40" width="190" height="90" as="geometry" />
        </mxCell>
        <mxCell id="hp7iopNFb53G-ryiseYE-18" value="" style="edgeStyle=orthogonalEdgeStyle;rounded=0;orthogonalLoop=1;jettySize=auto;html=1;" edge="1" parent="1" source="hp7iopNFb53G-ryiseYE-10" target="hp7iopNFb53G-ryiseYE-16">
          <mxGeometry relative="1" as="geometry" />
        </mxCell>
      </root>
    </mxGraphModel>
  </diagram>
</mxfile>
